<?xml version="1.0" encoding="UTF-8" standalone="no"?>
<!-- Created with Inkscape (http://www.inkscape.org/) -->

<svg
   xmlns:dc="http://purl.org/dc/elements/1.1/"
   xmlns:cc="http://creativecommons.org/ns#"
   xmlns:rdf="http://www.w3.org/1999/02/22-rdf-syntax-ns#"
   xmlns:svg="http://www.w3.org/2000/svg"
   xmlns="http://www.w3.org/2000/svg"
   xmlns:sodipodi="http://sodipodi.sourceforge.net/DTD/sodipodi-0.dtd"
   xmlns:inkscape="http://www.inkscape.org/namespaces/inkscape"
   id="svg3004"
   version="1.1"
   inkscape:version="0.48.4 r9939"
   width="640"
   height="640"
   xml:space="preserve"
   sodipodi:docname="final.ai"><metadata
     id="metadata3010"><rdf:RDF><cc:Work
         rdf:about=""><dc:format>image/svg+xml</dc:format><dc:type
           rdf:resource="http://purl.org/dc/dcmitype/StillImage" /><dc:title></dc:title></cc:Work></rdf:RDF></metadata><defs
     id="defs3008"><clipPath
       clipPathUnits="userSpaceOnUse"
       id="clipPath3018"><path
         d="m 45.031,258.553 c 0,-116.511 94.451,-210.96 210.961,-210.96 l 0,0 c 116.51,0 210.96,94.449 210.96,210.96 l 0,0 c 0,116.51 -94.45,210.96 -210.96,210.96 l 0,0 c -116.51,0 -210.961,-94.45 -210.961,-210.96"
         id="path3020" /></clipPath><linearGradient
       x1="0"
       y1="0"
       x2="1"
       y2="0"
       gradientUnits="userSpaceOnUse"
       gradientTransform="matrix(0,-421.92038,-421.92038,0,255.99205,469.51315)"
       spreadMethod="pad"
       id="linearGradient3026"><stop
         style="stop-opacity:1;stop-color:#f1f2f2"
         offset="0"
         id="stop3028" /><stop
         style="stop-opacity:1;stop-color:#f1f2f2"
         offset="1"
         id="stop3030" /></linearGradient><clipPath
       clipPathUnits="userSpaceOnUse"
       id="clipPath3038"><path
         d="M 0,512 512,512 512,0 0,0 0,512 z"
         id="path3040" /></clipPath><clipPath
       clipPathUnits="userSpaceOnUse"
       id="clipPath3046"><path
         d="m 242.154,222.902 31.039,0 0,-31.039 -31.039,0 0,31.039 z"
         id="path3048" /></clipPath><clipPath
       clipPathUnits="userSpaceOnUse"
       id="clipPath3062"><path
         d="m 270.089,174.964 28.452,0 0,-28.453 -28.452,0 0,28.453 z"
         id="path3064" /></clipPath><clipPath
       clipPathUnits="userSpaceOnUse"
       id="clipPath3078"><path
         d="m 259.743,146.684 23.969,0 0,-23.969 -23.969,0 0,23.969 z"
         id="path3080" /></clipPath><clipPath
       clipPathUnits="userSpaceOnUse"
       id="clipPath3094"><path
         d="m 224.565,216.349 15.002,0 0,-15.002 -15.002,0 0,15.002 z"
         id="path3096" /></clipPath><clipPath
       clipPathUnits="userSpaceOnUse"
       id="clipPath3110"><path
         d="m 281.987,197.208 21.727,0 0,-21.727 -21.727,0 0,21.727 z"
         id="path3112" /></clipPath><clipPath
       clipPathUnits="userSpaceOnUse"
       id="clipPath3126"><path
         d="m 265.174,214.539 28.453,0 0,-28.453 -28.453,0 0,28.453 z"
         id="path3128" /></clipPath><clipPath
       clipPathUnits="userSpaceOnUse"
       id="clipPath3142"><path
         d="m 228.962,160.996 28.453,0 0,-28.452 -28.453,0 0,28.452 z"
         id="path3144" /></clipPath><clipPath
       clipPathUnits="userSpaceOnUse"
       id="clipPath3158"><path
         d="m 208.27,190.225 18.106,0 0,-18.106 -18.106,0 0,18.106 z"
         id="path3160" /></clipPath><clipPath
       clipPathUnits="userSpaceOnUse"
       id="clipPath3174"><path
         d="m 259.656,97.97 3.622,0 0,-3.6212 -3.622,0 0,3.6212 z"
         id="path3176" /></clipPath><clipPath
       clipPathUnits="userSpaceOnUse"
       id="clipPath3190"><path
         d="m 241.378,172.119 18.106,0 0,-18.106 -18.106,0 0,18.106 z"
         id="path3192" /></clipPath><clipPath
       clipPathUnits="userSpaceOnUse"
       id="clipPath3206"><path
         d="m 266.468,125.043 7.501,0 0,-7.501 -7.501,0 0,7.501 z"
         id="path3208" /></clipPath><clipPath
       clipPathUnits="userSpaceOnUse"
       id="clipPath3222"><path
         d="m 258.061,156.987 7.501,0 0,-7.501 -7.501,0 0,7.501 z"
         id="path3224" /></clipPath><clipPath
       clipPathUnits="userSpaceOnUse"
       id="clipPath3238"><path
         d="m 224.953,144.054 7.501,0 0,-7.501 -7.501,0 0,7.501 z"
         id="path3240" /></clipPath><clipPath
       clipPathUnits="userSpaceOnUse"
       id="clipPath3254"><path
         d="m 216.848,169.23 7.502,0 0,-7.501 -7.502,0 0,7.501 z"
         id="path3256" /></clipPath><clipPath
       clipPathUnits="userSpaceOnUse"
       id="clipPath3270"><path
         d="m 268.796,178.326 18.106,0 0,-18.106 -18.106,0 0,18.106 z"
         id="path3272" /></clipPath><clipPath
       clipPathUnits="userSpaceOnUse"
       id="clipPath3286"><path
         d="m 241.378,137.458 16.554,0 0,-16.554 -16.554,0 0,16.554 z"
         id="path3288" /></clipPath><clipPath
       clipPathUnits="userSpaceOnUse"
       id="clipPath3302"><path
         d="m 252.759,115.731 11.898,0 0,-11.898 -11.898,0 0,11.898 z"
         id="path3304" /></clipPath><clipPath
       clipPathUnits="userSpaceOnUse"
       id="clipPath3318"><path
         d="m 213.357,200.657 39.833,0 0,-39.833 -39.833,0 0,39.833 z"
         id="path3320" /></clipPath><clipPath
       clipPathUnits="userSpaceOnUse"
       id="clipPath3334"><path
         d="m 44.8617,256.11 422.2603,0 0,-213.7695 -422.2603,0 0,213.7695 z"
         id="path3336" /></clipPath><clipPath
       clipPathUnits="userSpaceOnUse"
       id="clipPath3354"><path
         d="m 285.644,346.309 c 0,-16.158 -13.1,-29.258 -29.257,-29.258 l 0,0 c -6.731,0 -12.93,2.272 -17.873,6.091 l 0,0 54.746,-51.471 2.932,1.404 c 5.59,20.048 11.309,43.407 13.469,61.621 l 0,0 -30.484,29.961 c 4.045,-5.018 6.467,-11.401 6.467,-18.348 m -51.695,-18.875 0.422,-0.397 c -0.127,0.145 -0.254,0.293 -0.378,0.441 l 0,0 -0.044,-0.044 z"
         id="path3356" /></clipPath><clipPath
       clipPathUnits="userSpaceOnUse"
       id="clipPath3362"><path
         d="m -32768,32767 65535,0 0,-65535 -65535,0 0,65535 z"
         id="path3364" /></clipPath><linearGradient
       x1="0"
       y1="0"
       x2="1"
       y2="0"
       gradientUnits="userSpaceOnUse"
       gradientTransform="matrix(52.650166,-52.650166,-52.650166,-52.650166,254.73273,348.21826)"
       spreadMethod="pad"
       id="linearGradient3366"><stop
         style="stop-opacity:0.2;stop-color:#ffffff"
         offset="0"
         id="stop3368" /><stop
         style="stop-opacity:0.01998932;stop-color:#ffffff"
         offset="1"
         id="stop3370" /></linearGradient><mask
       maskUnits="userSpaceOnUse"
       x="0"
       y="0"
       width="1"
       height="1"
       id="mask3372"><g
         id="g3374"><g
           clip-path="url(#clipPath3362)"
           id="g3376"><g
             id="g3378"><g
               id="g3380"><path
                 d="m -32768,32767 65535,0 0,-65535 -65535,0 0,65535 z"
                 style="fill:url(#linearGradient3366);stroke:none"
                 id="path3382" /></g></g></g></g></mask><linearGradient
       x1="0"
       y1="0"
       x2="1"
       y2="0"
       gradientUnits="userSpaceOnUse"
       gradientTransform="matrix(52.650166,-52.650166,-52.650166,-52.650166,254.73273,348.21826)"
       spreadMethod="pad"
       id="linearGradient3388"><stop
         style="stop-opacity:1;stop-color:#363636"
         offset="0"
         id="stop3390" /><stop
         style="stop-opacity:1;stop-color:#363636"
         offset="1"
         id="stop3392" /></linearGradient><clipPath
       clipPathUnits="userSpaceOnUse"
       id="clipPath3400"><path
         d="m 225.975,346.162 c 0,-16.509 13.383,-29.892 29.892,-29.892 l 0,0 c 16.509,0 29.892,13.383 29.892,29.892 l 0,0 c 0,16.509 -13.383,29.892 -29.892,29.892 l 0,0 c -16.509,0 -29.892,-13.383 -29.892,-29.892"
         id="path3402" /></clipPath><linearGradient
       x1="0"
       y1="0"
       x2="1"
       y2="0"
       gradientUnits="userSpaceOnUse"
       gradientTransform="matrix(0,-59.78458,-59.78458,0,255.86705,376.05408)"
       spreadMethod="pad"
       id="linearGradient3408"><stop
         style="stop-opacity:1;stop-color:#f1f2f2"
         offset="0"
         id="stop3410" /><stop
         style="stop-opacity:1;stop-color:#f1f2f2"
         offset="1"
         id="stop3412" /></linearGradient><clipPath
       clipPathUnits="userSpaceOnUse"
       id="clipPath3420"><path
         d="M 0,512 512,512 512,0 0,0 0,512 z"
         id="path3422" /></clipPath></defs><sodipodi:namedview
     pagecolor="#ffffff"
     bordercolor="#666666"
     borderopacity="1"
     objecttolerance="10"
     gridtolerance="10"
     guidetolerance="10"
     inkscape:pageopacity="0"
     inkscape:pageshadow="2"
     inkscape:window-width="640"
     inkscape:window-height="480"
     id="namedview3006"
     showgrid="false"
     inkscape:zoom="0.375"
     inkscape:cx="320"
     inkscape:cy="320"
     inkscape:window-x="382"
     inkscape:window-y="98"
     inkscape:window-maximized="0"
     inkscape:current-layer="g3012" /><g
     id="g3012"
     inkscape:groupmode="layer"
     inkscape:label="final"
     transform="matrix(1.25,0,0,-1.25,0,640)"><g
       id="g3014"><g
         id="g3016"
         clip-path="url(#clipPath3018)"><g
           id="g3022"><g
             id="g3024"><path
               d="m 45.031,258.553 c 0,-116.511 94.451,-210.96 210.961,-210.96 l 0,0 c 116.51,0 210.96,94.449 210.96,210.96 l 0,0 c 0,116.51 -94.45,210.96 -210.96,210.96 l 0,0 c -116.51,0 -210.961,-94.45 -210.961,-210.96"
               style="fill:url(#linearGradient3026);stroke:none"
               id="path3032" /></g></g></g></g><g
       id="g3034"><g
         id="g3036"
         clip-path="url(#clipPath3038)"><g
           id="g3042"><g
             id="g3044" /><g
             id="g3050"><g
               clip-path="url(#clipPath3046)"
               opacity="0.699997"
               id="g3052"><g
                 transform="translate(242.1539,207.3823)"
                 id="g3054"><path
                   d="m 0,0 c 0,8.571 6.948,15.519 15.519,15.519 8.572,0 15.52,-6.948 15.52,-15.519 0,-8.571 -6.948,-15.519 -15.52,-15.519 C 6.948,-15.519 0,-8.571 0,0"
                   style="fill:#cc3552;fill-opacity:1;fill-rule:nonzero;stroke:none"
                   id="path3056" /></g></g></g></g><g
           id="g3058"><g
             id="g3060" /><g
             id="g3066"><g
               clip-path="url(#clipPath3062)"
               opacity="0.699997"
               id="g3068"><g
                 transform="translate(270.0889,160.7377)"
                 id="g3070"><path
                   d="m 0,0 c 0,7.857 6.369,14.226 14.226,14.226 7.857,0 14.226,-6.369 14.226,-14.226 0,-7.857 -6.369,-14.226 -14.226,-14.226 C 6.369,-14.226 0,-7.857 0,0"
                   style="fill:#f79034;fill-opacity:1;fill-rule:nonzero;stroke:none"
                   id="path3072" /></g></g></g></g><g
           id="g3074"><g
             id="g3076" /><g
             id="g3082"><g
               clip-path="url(#clipPath3078)"
               opacity="0.699997"
               id="g3084"><g
                 transform="translate(259.7426,134.6994)"
                 id="g3086"><path
                   d="m 0,0 c 0,6.619 5.366,11.984 11.984,11.984 6.619,0 11.985,-5.365 11.985,-11.984 0,-6.619 -5.366,-11.984 -11.985,-11.984 C 5.366,-11.984 0,-6.619 0,0"
                   style="fill:#fbae31;fill-opacity:1;fill-rule:nonzero;stroke:none"
                   id="path3088" /></g></g></g></g><g
           id="g3090"><g
             id="g3092" /><g
             id="g3098"><g
               clip-path="url(#clipPath3094)"
               opacity="0.699997"
               id="g3100"><g
                 transform="translate(224.5651,208.8481)"
                 id="g3102"><path
                   d="m 0,0 c 0,4.143 3.358,7.501 7.501,7.501 4.143,0 7.501,-3.358 7.501,-7.501 0,-4.143 -3.358,-7.501 -7.501,-7.501 C 3.358,-7.501 0,-4.143 0,0"
                   style="fill:#cc3552;fill-opacity:1;fill-rule:nonzero;stroke:none"
                   id="path3104" /></g></g></g></g><g
           id="g3106"><g
             id="g3108" /><g
             id="g3114"><g
               clip-path="url(#clipPath3110)"
               opacity="0.699997"
               id="g3116"><g
                 transform="translate(281.9872,186.3448)"
                 id="g3118"><path
                   d="M 0,0 C 0,6 4.864,10.864 10.864,10.864 16.863,10.864 21.727,6 21.727,0 21.727,-6 16.863,-10.864 10.864,-10.864 4.864,-10.864 0,-6 0,0"
                   style="fill:#e53439;fill-opacity:1;fill-rule:nonzero;stroke:none"
                   id="path3120" /></g></g></g></g><g
           id="g3122"><g
             id="g3124" /><g
             id="g3130"><g
               clip-path="url(#clipPath3126)"
               opacity="0.699997"
               id="g3132"><g
                 transform="translate(265.1744,200.3123)"
                 id="g3134"><path
                   d="m 0,0 c 0,7.857 6.369,14.226 14.226,14.226 7.857,0 14.226,-6.369 14.226,-14.226 0,-7.857 -6.369,-14.226 -14.226,-14.226 C 6.369,-14.226 0,-7.857 0,0"
                   style="fill:#cc3552;fill-opacity:1;fill-rule:nonzero;stroke:none"
                   id="path3136" /></g></g></g></g><g
           id="g3138"><g
             id="g3140" /><g
             id="g3146"><g
               clip-path="url(#clipPath3142)"
               opacity="0.699997"
               id="g3148"><g
                 transform="translate(228.9623,146.7702)"
                 id="g3150"><path
                   d="m 0,0 c 0,7.857 6.369,14.226 14.226,14.226 7.857,0 14.226,-6.369 14.226,-14.226 0,-7.857 -6.369,-14.226 -14.226,-14.226 C 6.369,-14.226 0,-7.857 0,0"
                   style="fill:#f26b36;fill-opacity:1;fill-rule:nonzero;stroke:none"
                   id="path3152" /></g></g></g></g><g
           id="g3154"><g
             id="g3156" /><g
             id="g3162"><g
               clip-path="url(#clipPath3158)"
               opacity="0.699997"
               id="g3164"><g
                 transform="translate(208.2697,181.1717)"
                 id="g3166"><path
                   d="m 0,0 c 0,5 4.053,9.053 9.053,9.053 5,0 9.053,-4.053 9.053,-9.053 0,-5 -4.053,-9.053 -9.053,-9.053 C 4.053,-9.053 0,-5 0,0"
                   style="fill:#e53439;fill-opacity:1;fill-rule:nonzero;stroke:none"
                   id="path3168" /></g></g></g></g><g
           id="g3170"><g
             id="g3172" /><g
             id="g3178"><g
               clip-path="url(#clipPath3174)"
               opacity="0.699997"
               id="g3180"><g
                 transform="translate(259.6564,96.1594)"
                 id="g3182"><path
                   d="m 0,0 c 0,1 0.811,1.811 1.811,1.811 1,0 1.81,-0.811 1.81,-1.811 0,-1 -0.81,-1.811 -1.81,-1.811 C 0.811,-1.811 0,-1 0,0"
                   style="fill:#cc3552;fill-opacity:1;fill-rule:nonzero;stroke:none"
                   id="path3184" /></g></g></g></g><g
           id="g3186"><g
             id="g3188" /><g
             id="g3194"><g
               clip-path="url(#clipPath3190)"
               opacity="0.699997"
               id="g3196"><g
                 transform="translate(241.3779,163.0656)"
                 id="g3198"><path
                   d="m 0,0 c 0,5 4.053,9.053 9.053,9.053 5,0 9.053,-4.053 9.053,-9.053 0,-5 -4.053,-9.053 -9.053,-9.053 C 4.053,-9.053 0,-5 0,0"
                   style="fill:#ef4038;fill-opacity:1;fill-rule:nonzero;stroke:none"
                   id="path3200" /></g></g></g></g><g
           id="g3202"><g
             id="g3204" /><g
             id="g3210"><g
               clip-path="url(#clipPath3206)"
               opacity="0.699997"
               id="g3212"><g
                 transform="translate(266.4677,121.2924)"
                 id="g3214"><path
                   d="m 0,0 c 0,2.071 1.679,3.751 3.751,3.751 2.071,0 3.75,-1.68 3.75,-3.751 0,-2.071 -1.679,-3.751 -3.75,-3.751 C 1.679,-3.751 0,-2.071 0,0"
                   style="fill:#ef4038;fill-opacity:1;fill-rule:nonzero;stroke:none"
                   id="path3216" /></g></g></g></g><g
           id="g3218"><g
             id="g3220" /><g
             id="g3226"><g
               clip-path="url(#clipPath3222)"
               opacity="0.699997"
               id="g3228"><g
                 transform="translate(258.0613,153.2366)"
                 id="g3230"><path
                   d="m 0,0 c 0,2.071 1.679,3.751 3.751,3.751 2.071,0 3.75,-1.68 3.75,-3.751 0,-2.071 -1.679,-3.751 -3.75,-3.751 C 1.679,-3.751 0,-2.071 0,0"
                   style="fill:#ef4038;fill-opacity:1;fill-rule:nonzero;stroke:none"
                   id="path3232" /></g></g></g></g><g
           id="g3234"><g
             id="g3236" /><g
             id="g3242"><g
               clip-path="url(#clipPath3238)"
               opacity="0.699997"
               id="g3244"><g
                 transform="translate(224.9531,140.3037)"
                 id="g3246"><path
                   d="m 0,0 c 0,2.071 1.679,3.751 3.751,3.751 2.071,0 3.75,-1.68 3.75,-3.751 0,-2.071 -1.679,-3.751 -3.75,-3.751 C 1.679,-3.751 0,-2.071 0,0"
                   style="fill:#ef4038;fill-opacity:1;fill-rule:nonzero;stroke:none"
                   id="path3248" /></g></g></g></g><g
           id="g3250"><g
             id="g3252" /><g
             id="g3258"><g
               clip-path="url(#clipPath3254)"
               opacity="0.699997"
               id="g3260"><g
                 transform="translate(216.8485,165.4797)"
                 id="g3262"><path
                   d="m 0,0 c 0,2.071 1.679,3.751 3.751,3.751 2.071,0 3.75,-1.68 3.75,-3.751 0,-2.071 -1.679,-3.751 -3.75,-3.751 C 1.679,-3.751 0,-2.071 0,0"
                   style="fill:#ef4038;fill-opacity:1;fill-rule:nonzero;stroke:none"
                   id="path3264" /></g></g></g></g><g
           id="g3266"><g
             id="g3268" /><g
             id="g3274"><g
               clip-path="url(#clipPath3270)"
               opacity="0.699997"
               id="g3276"><g
                 transform="translate(268.7956,169.2734)"
                 id="g3278"><path
                   d="m 0,0 c 0,5 4.053,9.053 9.053,9.053 5,0 9.053,-4.053 9.053,-9.053 0,-5 -4.053,-9.053 -9.053,-9.053 C 4.053,-9.053 0,-5 0,0"
                   style="fill:#f26b36;fill-opacity:1;fill-rule:nonzero;stroke:none"
                   id="path3280" /></g></g></g></g><g
           id="g3282"><g
             id="g3284" /><g
             id="g3290"><g
               clip-path="url(#clipPath3286)"
               opacity="0.699997"
               id="g3292"><g
                 transform="translate(241.3779,129.1814)"
                 id="g3294"><path
                   d="m 0,0 c 0,4.571 3.706,8.277 8.277,8.277 4.571,0 8.277,-3.706 8.277,-8.277 0,-4.571 -3.706,-8.277 -8.277,-8.277 C 3.706,-8.277 0,-4.571 0,0"
                   style="fill:#fbae31;fill-opacity:1;fill-rule:nonzero;stroke:none"
                   id="path3296" /></g></g></g></g><g
           id="g3298"><g
             id="g3300" /><g
             id="g3306"><g
               clip-path="url(#clipPath3302)"
               opacity="0.699997"
               id="g3308"><g
                 transform="translate(252.7588,109.7821)"
                 id="g3310"><path
                   d="m 0,0 c 0,3.286 2.664,5.949 5.949,5.949 3.286,0 5.949,-2.663 5.949,-5.949 0,-3.286 -2.663,-5.949 -5.949,-5.949 C 2.664,-5.949 0,-3.286 0,0"
                   style="fill:#fbae31;fill-opacity:1;fill-rule:nonzero;stroke:none"
                   id="path3312" /></g></g></g></g><g
           id="g3314"><g
             id="g3316" /><g
             id="g3322"><g
               clip-path="url(#clipPath3318)"
               opacity="0.699997"
               id="g3324"><g
                 transform="translate(213.3566,180.7406)"
                 id="g3326"><path
                   d="M 0,0 C 0,11 8.917,19.917 19.917,19.917 30.916,19.917 39.833,11 39.833,0 39.833,-11 30.916,-19.917 19.917,-19.917 8.917,-19.917 0,-11 0,0"
                   style="fill:#e53439;fill-opacity:1;fill-rule:nonzero;stroke:none"
                   id="path3328" /></g></g></g></g><g
           id="g3330"><g
             id="g3332" /><g
             id="g3338"><g
               clip-path="url(#clipPath3334)"
               opacity="0.100006"
               id="g3340"><g
                 transform="translate(255.9921,47.6187)"
                 id="g3342"><path
                   d="m 0,0 c 115.719,0 209.644,93.109 211.064,208.491 0.011,-0.882 0.066,-1.754 0.066,-2.639 C 211.13,89.248 116.604,-5.278 0,-5.278 c -116.604,0 -211.13,94.526 -211.13,211.13 0,0.885 0.055,1.757 0.066,2.639 C -209.644,93.109 -115.719,0 0,0"
                   style="fill:#363636;fill-opacity:1;fill-rule:nonzero;stroke:none"
                   id="path3344" /></g></g></g></g><g
           id="g3346"
           transform="translate(256.3862,317.051)"><path
             d="m 0,0 c -16.159,0 -29.258,13.099 -29.258,29.258 0,16.159 13.099,29.258 29.258,29.258 16.159,0 29.258,-13.099 29.258,-29.258 C 29.258,13.099 16.159,0 0,0 m 70.738,-101.46 c 0,0 -1.085,24.256 -11.406,36.598 -5.746,6.87 -17.695,12.814 -21.327,14.522 7.587,26.438 16.169,60.86 16.169,81.297 0,36.62 -54.552,63.424 -54.552,63.424 0,0 -54.363,-26.804 -54.363,-63.424 0,-20.426 8.514,-54.819 16.046,-81.251 -3.512,-1.646 -15.627,-7.636 -21.425,-14.568 -10.321,-12.342 -11.406,-36.598 -11.406,-36.598 0,0 -0.154,-0.966 0.539,-1.321 0.782,-0.401 1.503,0.347 1.503,0.347 0,0 10.623,12.857 17.803,16.3 9.101,4.365 19.232,3.732 22.871,3.314 0.902,-2.784 1.439,-4.388 1.439,-4.388 l 53.986,0 c 0,0 0.542,1.606 1.451,4.392 3.673,0.419 13.759,1.031 22.827,-3.318 7.179,-3.443 17.803,-16.3 17.803,-16.3 0,0 0.721,-0.748 1.503,-0.347 0.693,0.355 0.539,1.321 0.539,1.321"
             style="fill:#ee3953;fill-opacity:1;fill-rule:nonzero;stroke:none"
             id="path3348" /></g></g></g><g
       id="g3350"><g
         id="g3352"
         clip-path="url(#clipPath3354)"><g
           id="g3358"><g
             id="g3360" /><g
             id="g3384"
             mask="url(#mask3372)"><g
               id="g3386"><path
                 d="m 285.644,346.309 c 0,-16.158 -13.1,-29.258 -29.257,-29.258 l 0,0 c -6.731,0 -12.93,2.272 -17.873,6.091 l 0,0 54.746,-51.471 2.932,1.404 c 5.59,20.048 11.309,43.407 13.469,61.621 l 0,0 -30.484,29.961 c 4.045,-5.018 6.467,-11.401 6.467,-18.348 m -51.695,-18.875 0.422,-0.397 c -0.127,0.145 -0.254,0.293 -0.378,0.441 l 0,0 -0.044,-0.044 z"
                 style="fill:url(#linearGradient3388);stroke:none"
                 id="path3394" /></g></g></g></g></g><g
       id="g3396"><g
         id="g3398"
         clip-path="url(#clipPath3400)"><g
           id="g3404"><g
             id="g3406"><path
               d="m 225.975,346.162 c 0,-16.509 13.383,-29.892 29.892,-29.892 l 0,0 c 16.509,0 29.892,13.383 29.892,29.892 l 0,0 c 0,16.509 -13.383,29.892 -29.892,29.892 l 0,0 c -16.509,0 -29.892,-13.383 -29.892,-29.892"
               style="fill:url(#linearGradient3408);stroke:none"
               id="path3414" /></g></g></g></g><g
       id="g3416"><g
         id="g3418"
         clip-path="url(#clipPath3420)"><g
           id="g3424"
           transform="translate(327.0769,214.8916)"><path
             d="m 0,0 c -0.082,-0.18 -0.209,-0.349 -0.423,-0.459 -0.782,-0.401 -1.503,0.347 -1.503,0.347 0,0 -10.624,12.857 -17.803,16.301 -9.068,4.348 -19.154,3.736 -22.827,3.318 -0.909,-2.787 -1.45,-4.393 -1.45,-4.393 l -53.987,0 c 0,0 -0.537,1.605 -1.439,4.388 -3.638,0.418 -13.77,1.051 -22.871,-3.313 -7.179,-3.444 -17.803,-16.301 -17.803,-16.301 0,0 -0.721,-0.748 -1.503,-0.347 -0.214,0.11 -0.341,0.279 -0.423,0.459 -0.088,-1.088 -0.116,-1.709 -0.116,-1.709 0,0 -0.154,-0.966 0.539,-1.321 0.782,-0.401 1.503,0.347 1.503,0.347 0,0 10.624,12.857 17.803,16.3 9.101,4.365 19.233,3.732 22.871,3.314 0.902,-2.783 1.439,-4.388 1.439,-4.388 l 53.987,0 c 0,0 0.541,1.606 1.45,4.393 3.673,0.418 13.759,1.03 22.827,-3.319 7.179,-3.443 17.803,-16.3 17.803,-16.3 0,0 0.721,-0.748 1.503,-0.347 0.693,0.355 0.539,1.321 0.539,1.321 0,0 -0.028,0.621 -0.116,1.709"
             style="fill:#cd345a;fill-opacity:1;fill-rule:nonzero;stroke:none"
             id="path3426" /></g><g
           id="g3428"
           transform="translate(256.3184,409.0235)"><path
             d="m 0,0 c 0,0 53.637,-26.361 54.531,-62.512 0.012,0.561 0.021,1.117 0.021,1.659 C 54.552,-24.233 0,2.571 0,2.571 c 0,0 -54.363,-26.804 -54.363,-63.424 0,-0.542 0.009,-1.1 0.021,-1.662 C -53.454,-26.362 0,0 0,0"
             style="fill:#f0638d;fill-opacity:1;fill-rule:nonzero;stroke:none"
             id="path3430" /></g><g
           id="g3432"
           transform="translate(255.8655,375.1938)"><path
             d="m 0,0 c 17.083,0.022 29.153,-14.118 29.84,-30.007 0.019,0.435 0.034,0.872 0.034,1.312 0,16.499 -13.375,29.874 -29.874,29.874 -16.499,0 -29.874,-13.375 -29.874,-29.874 0,-0.44 0.014,-0.877 0.033,-1.312 C -29.153,-14.118 -17.065,-0.022 0,0"
             style="fill:#ffffff;fill-opacity:1;fill-rule:nonzero;stroke:none"
             id="path3434" /></g></g></g></g></svg>